<?xml version="1.0" encoding="utf-8"?>
<svg viewBox="153.558 99.382 1621.236 746.046" xmlns="http://www.w3.org/2000/svg">
  <g id="#000000ff" transform="matrix(1, 0, 0, 1, 148.449585, -26.568184)">
    <path fill="#000000" opacity="1.00" d=" M 1365.70 132.64 C 1367.63 130.01 1369.45 126.79 1372.85 125.95 C 1373.59 133.49 1363.22 135.82 1363.81 143.36 C 1366.67 143.27 1369.38 142.34 1372.00 141.22 C 1366.79 145.46 1360.06 147.47 1355.35 152.35 C 1354.06 153.49 1353.49 155.15 1352.91 156.70 C 1355.49 156.79 1358.25 156.95 1360.56 155.53 C 1364.07 153.53 1367.93 152.06 1372.05 152.20 C 1371.26 154.00 1369.65 155.17 1367.94 155.98 C 1360.71 160.09 1351.51 158.72 1344.66 163.66 C 1342.89 164.76 1342.25 166.77 1341.85 168.69 C 1350.28 169.84 1358.05 164.96 1366.46 165.89 C 1365.45 166.85 1365.19 168.39 1363.71 168.84 C 1355.94 173.08 1346.73 171.89 1338.51 174.60 C 1334.83 175.86 1330.44 177.01 1328.73 180.90 C 1338.49 182.27 1348.52 181.78 1358.09 184.44 C 1353.63 187.34 1348.15 187.82 1342.99 187.22 C 1335.74 186.32 1328.40 185.81 1321.12 186.42 C 1318.12 186.57 1316.20 189.11 1314.34 191.11 C 1319.51 193.37 1324.95 194.94 1330.36 196.52 C 1335.97 198.13 1342.15 197.77 1347.33 200.76 C 1344.57 202.59 1341.43 203.97 1338.05 203.77 C 1330.45 204.20 1323.48 200.58 1316.03 199.88 C 1311.77 199.49 1307.43 199.17 1303.22 199.95 C 1301.24 200.25 1299.88 201.80 1298.43 202.99 C 1301.89 208.10 1308.04 210.43 1314.00 210.85 C 1321.19 211.39 1328.37 213.47 1334.42 217.47 C 1334.46 217.78 1334.54 218.42 1334.59 218.73 C 1330.99 220.16 1327.03 220.73 1323.21 220.11 C 1311.76 218.80 1302.33 210.87 1290.79 209.91 C 1285.70 208.73 1280.09 212.26 1279.06 217.38 C 1284.52 218.69 1289.96 220.34 1294.79 223.28 C 1302.06 227.61 1309.90 230.87 1317.21 235.14 C 1313.67 237.11 1309.51 238.13 1305.50 237.34 C 1298.94 236.13 1293.33 232.34 1287.39 229.56 C 1283.40 227.67 1279.87 224.85 1275.65 223.49 C 1271.92 222.37 1267.64 222.02 1264.17 224.06 C 1262.02 225.12 1260.76 227.23 1259.39 229.08 C 1266.38 232.29 1273.72 234.77 1280.44 238.57 C 1287.61 242.56 1294.84 246.63 1301.18 251.88 C 1295.27 254.33 1288.48 253.66 1282.68 251.22 C 1276.23 248.30 1270.24 244.49 1264.33 240.64 C 1260.15 237.89 1255.45 235.91 1250.50 235.20 C 1246.25 234.43 1242.10 236.38 1238.54 238.46 C 1238.51 238.76 1238.44 239.38 1238.41 239.68 C 1240.65 241.20 1243.16 242.24 1245.55 243.51 C 1249.85 245.70 1253.75 248.58 1257.86 251.10 C 1262.97 254.27 1268.03 257.54 1272.85 261.16 C 1275.73 263.36 1278.98 265.14 1281.33 267.98 C 1275.74 269.03 1269.76 269.56 1264.36 267.45 C 1255.14 263.59 1247.07 257.59 1238.77 252.14 C 1233.81 248.90 1228.06 246.19 1222.00 246.66 C 1218.38 246.89 1215.29 248.93 1212.49 251.04 C 1215.40 252.75 1218.47 254.16 1221.55 255.57 C 1228.66 259.04 1235.24 263.57 1241.19 268.78 C 1247.15 273.99 1253.26 279.04 1259.02 284.47 C 1249.86 286.95 1239.93 284.08 1232.40 278.63 C 1227.67 275.43 1223.10 271.99 1218.83 268.20 C 1213.54 263.54 1207.60 259.22 1200.62 257.59 C 1194.85 256.30 1189.03 258.25 1183.94 260.87 C 1193.29 266.33 1201.82 273.01 1210.44 279.54 C 1217.38 284.89 1223.75 290.92 1230.55 296.44 C 1231.99 297.59 1233.05 299.11 1234.13 300.61 C 1228.01 301.12 1221.79 300.29 1216.19 297.76 C 1209.30 294.59 1202.36 291.31 1196.33 286.65 C 1189.75 281.60 1183.35 276.32 1177.03 270.97 C 1174.08 268.66 1170.90 265.91 1166.95 265.93 C 1162.56 266.50 1158.34 267.94 1154.00 268.69 C 1155.70 270.11 1157.39 271.56 1159.24 272.81 C 1164.74 276.54 1169.72 280.96 1174.87 285.16 C 1179.12 288.87 1183.72 292.24 1187.44 296.53 C 1192.94 303.03 1198.68 309.44 1202.79 316.96 C 1188.92 312.43 1174.08 308.17 1163.55 297.45 C 1157.72 290.97 1152.68 283.72 1146.00 278.04 C 1143.46 275.93 1140.31 274.48 1136.99 274.30 C 1132.69 274.03 1128.02 274.08 1124.44 276.81 C 1127.88 280.32 1131.91 283.15 1135.65 286.33 C 1147.21 296.45 1158.25 307.30 1167.42 319.68 C 1169.56 322.54 1172.20 325.23 1172.95 328.86 C 1170.32 328.48 1167.72 327.92 1165.30 326.86 C 1159.94 324.57 1154.31 322.82 1149.41 319.63 C 1144.21 316.27 1139.46 312.27 1135.07 307.93 C 1126.05 299.49 1119.15 289.05 1109.81 280.93 C 1104.71 281.54 1099.84 283.25 1095.12 285.23 C 1093.64 285.76 1092.54 286.89 1091.38 287.88 C 1097.23 291.63 1103.63 294.55 1109.05 298.97 C 1118.64 306.29 1127.15 314.85 1135.63 323.40 C 1140.86 327.82 1145.47 332.96 1151.11 336.90 C 1152.28 337.81 1153.25 338.96 1154.27 340.06 C 1148.67 340.69 1143.14 339.44 1137.66 338.52 C 1132.00 337.56 1126.95 334.71 1121.87 332.21 C 1108.87 325.09 1098.53 314.21 1088.63 303.39 C 1085.12 299.60 1081.79 295.64 1077.93 292.20 C 1072.10 294.36 1065.26 294.52 1060.48 298.88 C 1062.08 300.77 1063.57 302.90 1065.79 304.15 C 1070.00 306.57 1075.08 307.10 1079.10 309.91 C 1084.64 313.64 1088.27 319.39 1093.18 323.80 C 1099.76 329.28 1106.45 334.62 1113.30 339.75 C 1120.32 345.61 1127.32 351.51 1133.96 357.80 C 1116.50 358.52 1099.83 351.73 1085.11 342.92 C 1072.22 334.42 1060.98 323.76 1049.90 313.08 C 1047.97 311.30 1046.12 309.39 1043.82 308.11 C 1042.24 308.05 1040.75 308.63 1039.31 309.13 C 1033.43 311.36 1027.76 314.15 1022.47 317.55 C 1022.44 318.03 1022.38 318.98 1022.35 319.46 C 1027.33 321.17 1032.53 322.39 1037.17 324.96 C 1042.87 328.21 1048.93 330.84 1054.26 334.71 C 1067.31 343.43 1079.46 353.38 1091.07 363.93 C 1096.54 369.10 1102.52 373.70 1107.98 378.89 C 1101.43 379.33 1094.82 379.18 1088.32 378.31 C 1072.92 375.44 1059.32 367.08 1046.58 358.36 C 1042.37 355.28 1038.47 351.80 1034.20 348.82 C 1026.78 343.63 1020.34 337.13 1012.54 332.50 C 1007.82 329.87 1002.10 327.60 996.73 329.60 C 991.40 331.51 986.22 335.08 983.89 340.39 C 990.74 340.89 997.15 343.46 1003.61 345.58 C 1010.68 348.47 1017.77 351.51 1024.02 355.99 C 1045.19 369.38 1062.05 389.06 1085.02 399.69 C 1077.87 401.91 1070.29 401.68 1062.94 400.86 C 1056.50 400.65 1050.39 398.50 1044.18 397.07 C 1032.22 394.44 1021.46 388.24 1011.22 381.76 C 1005.54 378.26 1000.55 373.83 995.31 369.74 C 986.39 362.72 978.40 354.62 969.97 347.04 C 959.52 350.13 951.98 358.45 944.00 365.38 C 949.97 366.46 955.81 368.13 961.72 369.49 C 966.27 370.51 970.46 372.60 974.80 374.25 C 984.63 377.84 993.54 383.41 1002.72 388.34 C 1011.95 394.00 1020.75 400.33 1029.82 406.23 C 1034.08 408.86 1037.64 412.43 1041.83 415.17 C 1045.82 417.80 1049.50 420.87 1053.51 423.48 C 1055.25 424.56 1056.73 425.98 1058.17 427.43 C 1041.67 429.85 1024.45 429.11 1008.64 423.55 C 1004.26 422.23 999.77 421.25 995.61 419.32 C 992.39 417.84 989.15 416.41 985.87 415.10 C 981.28 413.31 977.26 410.41 972.87 408.25 C 966.72 405.25 961.16 401.24 955.40 397.60 C 946.83 391.88 938.40 385.95 930.13 379.82 C 928.93 378.99 927.35 377.67 926.00 379.01 C 919.93 383.13 914.77 388.40 909.40 393.35 C 900.71 401.01 892.77 409.45 885.01 418.02 C 878.40 424.40 871.83 430.84 865.42 437.43 C 861.50 441.51 857.08 445.04 853.01 448.95 C 851.13 450.54 849.34 452.51 846.91 453.21 C 842.91 453.52 838.91 452.81 834.91 452.73 C 830.91 452.63 826.92 452.31 823.00 451.54 C 824.81 445.40 830.80 442.31 834.93 437.93 C 857.20 414.55 884.64 397.08 908.57 375.57 C 909.68 374.43 911.10 373.14 910.74 371.37 C 909.82 358.68 908.35 346.01 908.34 333.27 C 907.76 321.44 908.68 309.64 909.56 297.85 C 909.95 286.27 912.61 274.90 916.17 263.91 C 920.81 252.17 926.22 239.77 936.63 232.00 C 937.44 235.26 937.62 238.61 937.71 241.96 C 938.24 250.64 939.33 259.28 939.71 267.97 C 939.98 272.97 940.79 277.94 940.67 282.96 C 940.52 292.86 941.10 302.81 939.85 312.66 C 939.11 318.61 939.30 324.66 938.24 330.58 C 936.66 338.57 934.59 346.50 931.23 353.94 C 938.01 354.02 943.87 350.04 948.87 345.87 C 951.41 343.62 954.22 341.60 956.26 338.85 C 956.66 334.90 955.42 331.00 955.40 327.06 C 955.26 318.36 955.37 309.67 955.35 300.98 C 955.05 290.38 956.88 279.87 958.57 269.45 C 959.78 260.99 962.98 253.03 966.04 245.11 C 969.97 235.66 976.63 226.37 986.72 223.00 C 986.87 228.02 985.36 232.89 985.32 237.90 C 985.17 245.11 985.33 252.33 984.77 259.52 C 984.36 263.11 984.25 266.76 984.90 270.35 C 985.55 273.97 985.80 277.68 985.24 281.34 C 984.17 289.10 984.40 296.98 983.39 304.75 C 982.28 312.89 978.13 320.13 975.73 327.89 C 982.42 327.02 987.79 322.67 993.57 319.59 C 993.51 315.53 993.77 311.47 994.24 307.44 C 994.86 302.46 994.01 297.43 994.71 292.46 C 996.32 281.82 996.96 271.00 999.69 260.55 C 1000.77 256.69 1002.00 252.87 1002.99 248.98 C 1004.74 242.10 1007.99 235.72 1011.64 229.67 C 1014.57 224.75 1018.79 220.76 1023.22 217.19 C 1024.51 216.11 1026.14 215.59 1027.72 215.04 C 1027.38 221.40 1026.08 227.67 1025.74 234.04 C 1025.41 239.99 1024.26 245.91 1024.71 251.89 C 1024.23 250.96 1023.75 250.03 1023.29 249.10 C 1023.39 266.94 1021.30 285.12 1014.59 301.77 C 1013.84 304.05 1011.39 305.81 1011.64 308.33 C 1014.35 308.91 1017.29 309.05 1019.87 307.82 C 1024.39 305.67 1028.86 303.36 1033.34 301.10 C 1033.25 290.51 1032.91 279.89 1034.18 269.36 C 1034.81 264.66 1034.87 259.90 1035.62 255.22 C 1037.94 244.92 1041.29 234.75 1046.61 225.58 C 1050.46 219.42 1055.20 213.49 1061.65 209.91 C 1061.64 217.30 1061.92 224.73 1061.00 232.09 C 1060.50 239.21 1060.01 246.34 1059.14 253.43 C 1058.50 258.05 1057.10 262.53 1056.47 267.15 C 1055.58 273.32 1054.55 279.53 1052.29 285.37 C 1051.19 288.18 1050.06 290.97 1049.09 293.83 C 1056.11 294.12 1061.74 289.31 1067.95 286.80 C 1068.34 281.74 1068.58 276.64 1069.77 271.69 C 1071.15 265.85 1070.63 259.74 1072.17 253.93 C 1073.65 248.50 1074.42 242.88 1076.30 237.56 C 1079.46 227.66 1083.67 217.67 1091.28 210.33 C 1093.47 208.00 1096.20 206.26 1099.13 205.01 C 1098.90 207.62 1098.57 210.22 1098.07 212.79 C 1096.69 219.45 1097.09 226.34 1095.70 233.00 C 1093.42 243.33 1092.62 253.93 1090.03 264.20 C 1088.24 269.95 1086.05 275.58 1084.03 281.26 C 1090.43 281.50 1095.53 276.93 1101.80 276.38 C 1104.44 261.92 1104.57 246.98 1108.98 232.86 C 1111.33 225.63 1113.29 218.09 1117.75 211.79 C 1121.06 206.57 1125.62 202.25 1130.94 199.11 C 1130.52 205.03 1128.64 210.75 1128.69 216.71 C 1128.21 216.22 1127.74 215.74 1127.28 215.26 C 1126.99 229.90 1122.61 244.00 1120.08 258.32 C 1119.12 263.27 1116.77 267.84 1116.11 272.86 C 1121.73 272.30 1126.95 269.89 1131.59 266.76 C 1132.86 251.87 1136.01 237.22 1139.97 222.83 C 1142.45 215.84 1145.17 208.73 1149.98 202.96 C 1152.58 199.75 1155.34 196.50 1159.14 194.68 C 1158.94 197.43 1158.63 200.18 1158.16 202.90 C 1156.96 209.42 1157.10 216.10 1155.60 222.57 C 1154.58 229.71 1152.54 236.63 1151.27 243.72 C 1149.84 250.71 1146.28 257.14 1145.64 264.29 C 1150.46 264.41 1155.42 263.18 1159.31 260.25 C 1161.22 256.60 1161.56 252.37 1162.55 248.42 C 1164.49 240.01 1165.11 231.28 1168.09 223.13 C 1170.07 217.74 1171.11 211.97 1173.95 206.91 C 1176.88 201.65 1180.46 196.25 1186.18 193.72 C 1186.34 199.17 1185.26 204.53 1185.12 209.96 C 1184.82 218.28 1183.07 226.47 1180.74 234.44 C 1179.64 238.43 1179.02 242.59 1177.26 246.37 C 1175.82 249.42 1174.68 252.61 1174.00 255.92 C 1178.80 256.45 1183.15 254.20 1187.50 252.55 C 1188.71 248.72 1189.93 244.88 1190.49 240.90 C 1192.36 227.71 1195.11 214.40 1201.39 202.53 C 1203.93 197.52 1207.34 192.14 1213.17 190.68 C 1213.49 197.19 1211.73 203.52 1211.23 209.97 C 1210.72 216.04 1208.49 221.76 1207.47 227.74 C 1206.43 234.20 1202.67 239.82 1201.79 246.32 C 1207.57 246.25 1212.93 242.69 1215.80 237.76 C 1218.15 233.83 1219.27 229.33 1220.13 224.87 C 1221.68 216.45 1223.60 208.10 1225.80 199.83 C 1228.00 193.41 1231.10 186.15 1237.96 183.58 C 1238.15 190.85 1237.35 198.13 1235.91 205.26 C 1233.73 214.94 1230.58 224.44 1229.74 234.39 C 1233.79 234.24 1237.31 231.83 1239.37 228.42 C 1242.16 224.11 1243.85 219.11 1244.14 213.98 C 1244.56 207.60 1246.22 201.40 1247.37 195.13 C 1248.77 189.11 1252.76 182.82 1259.23 181.53 C 1259.85 191.00 1256.78 200.06 1254.95 209.21 C 1253.85 213.91 1252.05 218.47 1251.76 223.34 C 1257.79 223.23 1260.62 217.00 1262.33 212.11 C 1265.06 205.74 1264.73 198.62 1266.96 192.11 C 1268.65 186.98 1269.89 181.54 1273.05 177.07 C 1274.17 175.32 1276.14 174.53 1277.98 173.73 C 1278.96 180.04 1277.84 186.39 1276.64 192.58 C 1275.62 197.35 1274.66 202.18 1272.72 206.68 C 1271.66 208.96 1271.28 211.45 1271.19 213.95 C 1275.42 213.66 1279.33 210.97 1280.87 206.98 C 1283.22 200.92 1284.36 194.46 1285.07 188.02 C 1285.76 181.58 1287.72 175.01 1291.99 170.00 C 1293.08 168.52 1294.96 168.13 1296.60 167.52 C 1296.50 179.35 1292.87 190.71 1289.72 201.99 C 1295.16 200.56 1299.33 195.76 1300.42 190.30 C 1301.64 184.56 1303.43 178.94 1304.37 173.14 C 1305.07 168.86 1306.90 164.86 1309.22 161.23 C 1309.89 160.12 1311.07 159.47 1312.12 158.72 C 1312.54 162.89 1312.18 167.11 1310.82 171.08 C 1308.85 176.93 1308.21 183.10 1307.88 189.23 C 1311.71 188.49 1314.29 185.08 1315.34 181.51 C 1317.07 175.81 1318.40 170.00 1319.28 164.11 C 1319.98 159.31 1323.08 154.65 1327.76 152.96 C 1328.60 162.09 1322.03 169.97 1323.29 179.13 C 1324.83 178.11 1326.51 177.12 1327.45 175.44 C 1331.32 169.84 1332.41 163.00 1334.31 156.60 C 1335.31 152.66 1336.34 148.72 1337.70 144.88 C 1338.23 144.68 1339.31 144.27 1339.84 144.07 C 1339.84 145.38 1339.83 146.69 1339.80 148.01 C 1339.78 152.01 1337.26 155.39 1336.51 159.24 C 1336.18 161.16 1336.28 163.12 1336.30 165.07 C 1340.51 163.90 1343.89 160.18 1344.50 155.82 C 1345.57 149.90 1345.08 143.21 1349.21 138.31 C 1350.38 143.86 1348.75 149.51 1349.27 155.12 C 1354.66 149.58 1355.38 141.58 1358.63 134.88 C 1358.59 137.78 1358.54 140.67 1358.54 143.57 C 1362.69 141.33 1363.10 136.16 1365.70 132.64 Z"/>
  </g>
  <g id="#e86e32ff" transform="matrix(1, 0, 0, 1, 148.449585, -26.568184)">
    <path fill="#e86e32" opacity="1.00" d="M 1551.642 186.538 C 1551.482 184.648 1550.93 183.49 1551.77 181.92 C 1554.02 184.12 1555.877 186.661 1557.55 189.36 C 1560.772 194.558 1564.729 199.461 1568.55 204.37 C 1570.286 206.601 1572.31 208.73 1573.22 211.47 C 1574.67 215.97 1577.01 220.14 1578.17 224.74 C 1579.47 229.88 1582.76 234.52 1582.62 239.98 C 1582.56 243.43 1584.71 246.48 1584.43 249.96 C 1584.28 258 1584.74 266.08 1583.6 274.08 C 1583.22 281.82 1579.31 288.68 1576.71 295.81 C 1574.81 299.77 1573.86 304.4 1570.49 307.45 C 1567.04 310.79 1565.04 315.37 1561.28 318.4 C 1556.48 321.97 1554.17 328.1 1548.73 330.95 C 1544.37 333.19 1540.68 336.62 1536.03 338.27 C 1532.46 339.59 1529.32 341.88 1525.64 342.9 C 1520.72 344.2 1516.14 346.59 1511.09 347.35 C 1503.51 349.08 1495.79 350.39 1488 350.44 C 1473.98 350.37 1459.96 350.109 1445.95 350.189 C 1442.5 350.209 1438.207 348.19 1434.737 348.47 C 1430.347 348.6 1427.41 347.3 1423.06 347.23 C 1411.68 347.07 1400.39 345.08 1389 345.59 C 1382.61 345.86 1376.05 344.72 1369.82 346.57 C 1365.34 347.85 1360.57 348.19 1356.35 350.27 C 1352.81 352 1349.08 353.25 1345.32 354.32 C 1344.56 355.6 1342.527 356.098 1341.797 357.388 C 1339.447 358.478 1337.92 360.1 1336.71 362.6 C 1334.99 365.9 1334.04 369.56 1331.87 372.63 C 1329.62 370.26 1327.52 367.64 1326.43 364.48 C 1325.54 361.63 1323.51 359.41 1322.08 356.87 C 1319.31 350.73 1315.81 344.8 1314.72 338.06 C 1313.59 331.34 1311.49 324.85 1310.03 318.21 C 1308.89 313.92 1310.95 309.73 1311.89 305.61 C 1313.28 299.58 1316.36 294.03 1320.48 289.45 C 1323.93 285.53 1329.03 283.88 1333.45 281.37 C 1337.87 278.73 1343.09 278.33 1347.9 276.73 C 1350.48 275.81 1353.23 275.52 1355.98 275.63 C 1364.01 275.8 1372.03 275.63 1380.06 275.66 C 1382.86 275.62 1385.34 277.18 1388.08 277.58 C 1391.03 277.79 1394.02 277.38 1396.99 277.73 C 1399.66 278.08 1402.24 279.04 1404.96 279.25 C 1407.98 279.46 1411.01 279.12 1414.05 279.3 C 1416.74 279.45 1419.3 280.44 1421.99 280.7 C 1425.66 281.04 1429.36 280.52 1433.05 280.75 C 1435.51 280.91 1437.78 282.01 1440.19 282.47 C 1442.78 282.83 1445.41 282.44 1448.03 282.8 C 1450.34 283.26 1452.51 284.52 1454.94 284.42 C 1467.64 284.22 1480.35 284.33 1493.06 284.37 C 1496.49 284.48 1499.47 282.09 1502.94 282.42 C 1505.93 282.54 1508.98 282.28 1511.72 280.94 C 1516.1 278.83 1521.3 278.4 1525.07 275.09 C 1529.14 271.71 1534.96 270.58 1537.99 265.96 C 1539.67 263.36 1542.51 261.5 1543.47 258.46 C 1544.5 254.81 1547.53 252.22 1548.76 248.65 C 1549.52 246.37 1551.23 244.64 1552.52 242.66 C 1552.81 240.44 1552.61 238.2 1552.67 235.98 C 1552.59 230.91 1554.74 226.09 1554.44 220.99 C 1554.12 215.23 1555.32 209.27 1553.42 203.7 C 1552.57 201.24 1552.51 198.62 1552.18 196.07 C 1551.7 192.92 1551.892 189.728 1551.642 186.538 Z"/>
    <path fill="#e86e32" opacity="1.00" d="M 80.218 187.481 C 81.588 187.431 81.35 186.25 82.72 186.22 C 83.16 190.33 81.02 193.98 80.59 197.98 C 79.46 204.65 76.75 211.12 77.11 217.99 C 77.3 223.01 77.03 228.03 77.14 233.05 C 77.13 237.04 79.89 240.32 80.37 244.22 C 80.73 246.22 80.67 248.38 81.76 250.17 C 84.44 254.64 83.374 260.638 88.004 263.718 C 88.414 265.298 90.38 266.75 91.1 268.24 C 93.13 271.18 96.3 273.01 99.23 274.94 C 101.66 276.52 103.8 278.6 106.54 279.66 C 109.02 280.66 111.39 281.91 113.68 283.3 C 116.02 284.84 118.94 284.61 121.59 285.11 C 127.11 285.74 132.33 288.33 137.99 287.7 C 145.34 287.09 152.64 289.01 159.97 288.03 C 165.32 287.36 170.7 287.73 176.07 287.72 C 179.81 287.82 183.19 285.74 186.93 285.82 C 191.61 285.74 196.4 286.46 200.96 285.06 C 204.69 283.86 208.74 284.89 212.42 283.49 C 217.092 282.192 221.329 283.089 225.45 281.58 C 230.55 280.13 235.86 280.92 241.07 280.82 C 244.77 280.83 248.2 278.97 251.93 279.22 C 258.62 279.53 265.3 278.72 271.98 279.19 C 277.34 279.55 283 277.77 288.11 280.08 C 295.13 283.34 303.13 284.61 309.29 289.6 C 313.93 292.65 316.25 297.89 318.44 302.78 C 319.44 305.25 322.1 307.05 321.84 309.96 C 321.82 315.99 321.76 322.03 321.85 328.07 C 321.97 332.71 319.47 336.81 318.53 341.24 C 316.08 353.21 310.19 364.13 303.67 374.34 C 301.31 373.92 301.717 371.983 300.447 369.913 C 299.977 368.023 297.39 366.72 297.26 364.79 C 294.54 362.59 292.45 359.41 289 358.28 C 286.36 357.35 284.08 355.71 281.74 354.22 C 279.48 352.71 276.72 352.47 274.13 351.97 C 270.89 351.4 267.87 350.04 264.69 349.25 C 260.45 348.15 255.97 349.41 251.77 348.12 C 248.61 347.09 245.28 347.07 242 347.18 C 237.9 347.31 233.72 346.73 229.72 347.82 C 224.54 349.29 219 348.3 213.88 350.13 C 208.71 351.93 203.25 352.42 197.95 353.63 C 190.48 355.56 182.7 353.57 175.14 354.78 C 168.17 356.08 161.05 355.47 154 355.63 C 149.46 355.55 144.78 356.14 140.4 354.67 C 131.87 352.18 122.82 352.4 114.36 349.59 C 107.2 347.2 100.24 344.25 93.17 341.61 C 84.86 337.02 77.07 331.09 71.77 323.1 C 67.67 318.21 63.23 313.55 60.19 307.87 C 54 299.31 51.95 288.78 49.1 278.84 C 48.47 274.87 48.66 270.81 47.79 266.88 C 46.56 260.57 48.3 254.28 48.79 248 C 49.13 245.27 50.27 242.72 50.67 240.01 C 51.74 232.31 53.53 224.51 57.68 217.83 C 60.94 211.19 65.13 205.09 68.79 198.68 C 71.68 195.4 74.93 192.42 78.13 189.44 C 78.31 188.41 80.068 188.511 80.218 187.481 Z"/>
    <path fill="#e86e32" opacity="1.00" d="M 1334.54 387.27 C 1334.52 384.6 1332.98 381.7 1334.66 379.26 C 1339.94 384.95 1343.72 391.83 1347.21 398.72 C 1350.44 407.13 1352.88 415.83 1356.04 424.27 C 1357.67 431.88 1360.24 439.29 1361.46 447 C 1362.1 452.47 1361.64 458.05 1360.35 463.4 C 1359.11 467.95 1356.36 471.85 1353.99 475.87 C 1352.19 478.75 1350.7 481.93 1348.13 484.23 C 1345.16 487.06 1341.71 489.31 1338.2 491.41 C 1335.39 493.08 1333.12 495.81 1329.81 496.5 C 1324.61 497.79 1319.22 497.88 1313.91 497.78 C 1311.19 497.74 1308.67 497.027 1306.01 496.717 C 1303.67 496.497 1301.32 496.31 1299.01 496.08 C 1296.62 495.7 1294.46 494.37 1292.04 494.31 C 1287.79 494.16 1283.48 494.9 1279.33 493.79 C 1275.36 492.78 1271.26 492.65 1267.28 491.82 C 1262.17 491.04 1257.21 489.19 1252 489.26 C 1244.07 488.67 1236.45 486.08 1228.57 485.17 C 1220.04 484.22 1212.02 480.9 1203.53 479.77 C 1198.95 479.3 1194.66 477.39 1190.05 477.27 C 1186.58 477.23 1183.34 475.93 1180.1 474.88 C 1176.53 473.63 1172.69 474.57 1169.05 473.96 C 1162.12 472.41 1155.16 470.33 1148 470.62 C 1144.32 470.7 1140.65 470.52 1136.99 470.7 C 1133.65 470.82 1130.77 472.68 1127.65 473.62 C 1122.72 475.15 1117.47 476.16 1113.17 479.17 C 1108.47 482.87 1104.38 487.37 1101.59 492.68 C 1099.34 495.75 1097.74 499.2 1097.34 503.03 C 1088.48 494.18 1084.19 482.11 1079.35 470.84 C 1075.75 462.37 1075.22 453.06 1075.53 443.98 C 1075.15 435.92 1077.31 427.7 1082.14 421.19 C 1083.81 419.13 1085.69 417.23 1087.09 414.95 C 1088.37 413.09 1089.41 410.73 1091.76 410 C 1096.53 408.12 1101.06 405.64 1106.01 404.22 C 1109.64 403.15 1113.02 400.95 1116.92 401.06 C 1125.94 401.09 1134.97 401.18 1143.99 401.07 C 1150.86 400.86 1157.77 401.77 1164.35 403.77 C 1166.74 404.55 1169.29 404.2 1171.75 404.61 C 1173.81 405.1 1175.77 405.227 1177.94 405.317 C 1181.72 405.477 1185.58 406 1189.29 407 C 1195.45 408.63 1201.68 410.11 1207.96 411.21 C 1212.82 411.18 1217.48 412.45 1222.09 413.84 C 1230.73 415.63 1239.55 416.58 1248.09 418.9 C 1251.42 419.87 1255 419.46 1258.32 420.57 C 1260.45 421.32 1262.7 421.62 1264.97 421.59 C 1273.11 421.62 1280.82 425.21 1288.99 424.74 C 1294.76 424.56 1300.68 425.33 1306.28 423.49 C 1313.79 421.91 1320.89 418.65 1327.05 414.1 C 1328.22 412.78 1331.656 411.833 1332.456 410.283 C 1333.336 407.963 1334.266 407.07 1334.36 404.26 C 1334.51 398.6 1334.64 392.93 1334.54 387.27 Z"/>
    <path fill="#e86e32" opacity="1.00" d="M 287.99 399.87 C 291.22 393.8 293.58 387.18 298.03 381.86 C 298.85 382.72 297.754 388.251 298.494 389.191 C 298.179 392.95 298.005 394.842 298.787 397.126 C 298.907 402.886 299.43 408.14 303.25 412.74 C 305.39 415.29 307.67 417.76 310.16 419.99 C 312.15 421.86 315.27 421.06 317.45 422.61 C 319.94 423.95 322.02 425.69 325.05 426.51 C 328.67 427.489 332.413 428.919 336.06 428.21 C 338.136 427.806 341.932 426.952 345.23 426.59 C 349.369 426.136 353.51 426 357.63 425.5 C 363.35 424.59 369.28 424.83 374.79 422.76 C 378.66 421.21 382.83 421.45 386.9 421.04 C 392.2 419.9 397.71 419.64 402.83 417.72 C 406.93 416.06 411.42 416.49 415.7 415.71 C 424.09 414.02 432.39 411.53 440.97 411.11 C 444.79 410.53 448.15 408.16 452.08 407.99 C 457.11 407.82 461.94 406.02 467 406.22 C 471.43 406.45 475.61 404.53 480.04 404.61 C 483.16 404.69 485.95 403.08 489.01 402.76 C 491.72 402.46 494.38 401.84 497.05 401.31 C 508.2 399.88 519.19 402.88 529.99 405.16 C 536.41 408.03 542.26 412.02 548.02 416.02 C 550.37 417.58 551.77 420.08 552.57 422.73 C 553.88 427.03 557.15 430.48 557.99 434.95 C 559.01 439.89 559.79 444.96 559.41 450.03 C 558.74 457.65 557.09 465.13 555.44 472.59 C 553.75 479.28 550.61 485.48 547.55 491.62 C 545.46 496.01 541.71 499.2 538.4 502.63 C 534.93 497.82 532.29 492.5 529.9 487.12 C 524.03 481.75 517.59 476.6 509.83 474.33 C 506.29 473.42 502.76 472.21 499.07 472.29 C 493.35 472.37 487.64 472.39 481.93 472.28 C 478.18 472.13 474.69 473.69 471.03 474.22 C 467.14 474.78 463.33 475.77 459.51 476.68 C 455.54 477.6 451.45 476.807 447.42 478.043 C 443.867 479.17 440.37 479.72 436.79 480.64 C 433.22 481.49 429.71 482.7 425.99 482.7 C 422.94 482.65 420.35 484.41 417.54 485.29 C 415.6 485.66 413.61 485.4 411.66 485.71 C 409.64 486.07 407.77 486.97 405.77 487.43 C 402.79 487.83 399.66 487.44 396.85 488.72 C 392.08 490.79 386.86 491.14 381.8 492.01 C 378.61 492.56 375.23 492.07 372.17 493.31 C 369.31 494.56 366.16 494.22 363.14 494.54 C 360.74 495.12 358.57 496.57 356.02 496.5 C 352.34 496.57 348.72 497.29 345.13 498.05 C 341.97 498.85 338.68 497.76 335.52 498.57 C 329.79 500.05 323.84 499.2 318 499.38 C 313.18 499.3 308.21 499.95 303.52 498.49 C 297.13 496.66 291.87 492.29 287.15 487.79 C 281.35 481.87 278.99 473.71 276.55 466.03 C 274.48 459.88 275.69 453.34 275.44 447.01 C 275.09 440.91 277.17 435.06 277.34 429.01 C 277.38 426.83 277.78 424.67 278.78 422.72 C 282.32 415.29 284.13 407.16 287.99 399.87 Z"/>
    <path fill="#e86e32" opacity="1.00" d="M 533.51 510.36 C 534.77 508.42 536.83 507.26 538.69 506 C 538.8 513.34 538.49 520.7 538.68 528.05 C 538.43 530.58 540.63 532.16 542.04 533.93 C 543.86 535.8 544.91 538.253 546.01 540.523 C 548.38 542.053 550.61 542.46 552.85 544.27 C 554.59 545.53 556.05 547.32 558.21 547.92 C 562.34 549.2 566.62 550.29 570.99 550.08 C 578.01 549.82 585.04 549.99 592.07 550.08 C 594.86 550.18 597.4 548.86 600.1 548.43 C 602.07 548.21 604.06 548.33 606.04 548.39 C 606.78 547.74 617.01 547.418 617.77 546.788 C 624.853 545.64 622.959 545.876 632.801 543.742 C 634.691 543.442 639.887 541.68 641.797 541.42 C 643.907 540.88 653.6 538.581 655.87 538.591 C 663.43 537.387 663.88 536.907 671.27 535.38 C 676.486 533.974 681.876 532.604 687.08 532.12 C 691.531 531.706 694.204 531.025 697.816 530.585 C 705.396 527.835 713.616 528.191 721.546 527.471 C 724.276 527.218 727.06 526.686 729.96 526.48 C 736.99 526.58 744.01 526.58 751.04 526.48 C 753.92 526.32 756.754 526.885 759.514 527.515 C 765.18 527.344 769.757 530.687 774.7 532.04 C 778.669 534.653 782.926 537.138 786.63 540.38 C 789.118 543.79 791.439 547.17 794 550.21 C 795 554.66 795.89 559.14 797.2 563.52 C 798.06 569.26 798.12 575.3 796.24 580.86 C 795.12 585.08 795.23 589.55 793.77 593.71 C 792.43 597.43 792.25 601.59 790.13 605.01 C 785.44 611.78 783.79 620.71 777.05 626 C 775.7 624.65 774.11 623.42 773.38 621.61 C 771.61 617.5 769.48 613.55 766.98 609.85 C 765.82 608.26 764.709 605.912 763.159 604.832 C 761.139 603.662 758.746 602.889 756.976 601.419 C 754.254 600.265 751.495 599.786 749.997 598.77 C 745.147 595.48 737.81 596.32 732.04 595.92 C 727.24 595.96 722.34 595.38 717.66 596.64 C 713.27 597.82 708.886 598.923 704.39 599.7 C 700.827 600.316 699.109 600.146 696.62 600.51 C 692.487 601.114 688.37 601.9 684.49 603.43 C 681.51 604.72 678.21 604.46 675.06 604.82 C 667.89 605.81 660.86 607.55 653.77 608.96 C 649.09 609.31 644.75 611.44 640.03 611.42 C 636.57 611.5 633.63 612.577 630.33 613.327 C 625.96 614.027 621.34 613.43 617.14 615.25 C 613.65 616.63 609.8 616.18 606.22 617.18 C 601.55 618.38 596.82 619.63 591.95 619.42 C 589.526 620.338 586.689 620.746 584.01 621.22 C 580.78 621.52 577.51 621.18 574.3 621.71 C 565.61 623.29 556.74 623.21 547.94 623.14 C 543.07 623.2 539.03 620.12 534.89 617.99 C 529.11 614.22 524.7 608.72 520.8 603.11 C 516.87 598.39 514.56 592.57 513.06 586.68 C 512.14 582.85 512.57 578.89 512.53 575 C 512.61 571.33 512.19 567.65 512.45 563.99 C 512.85 559.66 514.73 555.66 516.65 551.83 C 518.68 547.69 519.13 543.05 520.23 538.64 C 521.17 534.54 524.03 531.26 525.45 527.35 C 527.57 521.44 530.12 515.66 533.51 510.36 Z"/>
    <path fill="#e86e32" opacity="1.00" d="M 1098.35 505.87 C 1100.96 507.33 1102.85 509.66 1103.6 512.58 C 1104.7 516.88 1108.67 519.52 1110.11 523.64 C 1112.15 529.45 1115.18 534.85 1117.09 540.71 C 1118.54 545.32 1120.73 549.64 1122.81 554 C 1123.89 556.17 1124.48 558.56 1124.57 561 C 1124.76 566.07 1126.8 570.91 1126.44 576.03 C 1126.02 584.07 1123.12 591.74 1119.8 598.99 C 1118.97 600.96 1117.23 602.29 1115.72 603.71 C 1112.16 606.82 1109.91 611.16 1106.11 614.02 C 1103.26 616.18 1100.41 618.36 1097.43 620.33 C 1095.56 621.67 1093.16 621.36 1091.02 621.63 C 1087.94 621.77 1084.99 622.72 1081.96 623.14 C 1079.16 623.52 1076.44 622.56 1073.74 622.03 C 1070.56 621.26 1067.28 621.72 1064.07 621.52 C 1061.96 621.25 1059.468 620.466 1057.398 620.066 C 1054.008 619.616 1051.08 620.22 1047.8 619.05 C 1045.28 618.11 1042.6 617.91 1039.95 617.92 C 1036.23 617.91 1032.8 615.96 1029.05 616.32 C 1024.61 616.59 1020.35 615.21 1016 614.61 C 1012.26 614.12 1008.71 612.79 1005.07 611.91 C 1002.13 611.19 999.06 611.51 996.11 610.97 C 993.83 610.31 991.58 609.48 989.21 609.33 C 984.36 608.91 979.94 606.44 975.05 606.3 C 972.41 606.11 969.74 604.655 967.13 604.195 C 964.05 603.205 961.35 602.75 958 602.8 C 953.29 602.65 948.74 601.36 944.07 600.87 C 940.41 600.44 936.993 599.024 933.46 598.07 C 930.052 597.15 929.591 598.22 923.08 596.87 C 918.688 595.959 914.36 596.04 910 595.94 C 904.29 596.04 898.42 595.3 892.88 597.03 C 888.6 598.31 884.99 601.04 880.94 602.82 C 876.99 604.71 873.99 607.98 870.6 610.67 C 868.67 612.21 867.62 614.49 866.48 616.62 C 864.76 619.91 862.92 623.14 861.4 626.53 C 857.2 623.66 854.8 619.09 852.18 614.89 C 851 612.98 850.25 610.88 849.45 608.82 C 848.15 605.42 845.54 602.66 844.69 599.07 C 843.67 595.1 842.46 591.19 840.93 587.4 C 838.33 575.56 838.39 562.91 842.6 551.45 C 844.4 548.61 846.56 545.99 848.06 542.94 C 850.16 538.46 854.96 536.49 858.92 534.02 C 864.3 530.59 870.7 529.57 876.71 527.76 C 882.64 525.91 888.89 526.63 895 526.56 C 900.48 526.64 906.06 526 911.44 527.38 C 916.67 528.62 922.14 527.36 927.35 528.83 C 931.08 529.8 934.654 530.403 938.454 530.763 C 942.324 531.533 945.97 532.93 950.01 533.04 C 954.41 533.12 958.6 534.69 963.01 534.73 C 968.29 534.53 972.8 537.98 978.04 538.1 C 984.83 538.36 991.27 540.7 997.92 541.83 C 1002.37 542.75 1007.05 542.86 1011.26 544.77 C 1014.28 546.17 1019.109 545.407 1022.279 546.067 C 1026.189 546.877 1028.75 546.28 1032.59 547.52 C 1036.91 549.14 1040.693 548.652 1045.183 548.872 C 1048.573 548.842 1052.57 549.93 1055.94 550.14 C 1060.38 550.53 1064.69 549.12 1069.01 548.3 C 1075.55 546.92 1082.34 545.69 1087.98 541.87 C 1090.67 540.54 1091.53 537.46 1093.24 535.22 C 1095 532.6 1097.83 530.33 1097.97 526.95 C 1098.33 519.93 1097.78 512.89 1098.35 505.87 Z"/>
    <path fill="#e86e32" opacity="1.00" d="M 767.06 641.04 C 769.41 637.03 771.18 632.7 773.9 628.92 C 774.7 629.78 774.444 632.842 775.194 633.792 C 775.724 636.502 776.34 637.1 776.97 639.8 C 777.93 641.86 779.27 643.74 780.26 645.81 C 781.37 647.92 782.17 650.34 784.05 651.94 C 786.44 654.04 789.46 655.19 792.17 656.8 C 794.38 658.01 796.44 659.65 798.99 660.1 C 802.96 660.96 807.06 661.12 810.99 662.24 C 813.26 662.87 815.57 663.56 817.97 663.54 C 822.45 663.9 826.45 661.35 830.89 661.16 C 835.28 660.28 840.28 660.89 844.04 658.06 C 847.59 655.62 851.63 653.69 854.41 650.29 C 856.47 648.11 856.77 644.9 858.7 642.64 C 861.6 639.45 861.49 634.87 862.52 630.93 C 866.08 632.95 867.25 637.12 870.15 639.82 C 873.22 642.75 874.15 647.07 875.88 650.81 C 877.28 655.19 879.46 659.25 881.37 663.43 C 883.04 667.67 886.1 671.29 887.05 675.83 C 889.08 681.3 888.77 687.23 888.03 692.92 C 886.701 699.024 883.199 704.356 880.5 709.4 C 878.85 710.44 878.176 712.14 876.776 713.51 C 875.166 715.28 873.07 716.69 871.38 718.39 C 870 719.44 868.35 720.06 866.83 720.87 C 861.45 723.5 856.69 727.55 850.73 728.89 C 845.13 730.2 839.94 733.35 834.04 733.21 C 824.03 733.14 814.01 733.65 804.03 733.02 C 798.92 731.78 793.84 730.4 788.74 729.16 C 786.21 728.52 783.48 728.47 781.24 727.01 C 774.683 723.938 769.551 722.701 763.72 717.146 C 757.314 713.422 756.347 709.23 754.48 704.69 C 751.65 699.25 750.29 693.1 750.31 686.99 C 750.25 680.58 750.23 673.54 754.25 668.16 C 757.65 663.43 757.95 657.2 761.72 652.67 C 764.54 649.3 764.85 644.73 767.06 641.04 Z"/>
  </g>
  <g id="#000088ff" transform="matrix(1, 0, 0, 1, 148.449585, -26.568184)">
    <path fill="#000088" opacity="1.00" d=" M 672.42 209.70 C 677.59 209.13 682.79 208.84 688.00 208.66 C 693.32 208.46 698.58 209.38 703.89 209.66 C 708.25 209.92 712.65 210.24 716.90 211.36 C 726.98 213.95 737.19 216.60 746.48 221.44 C 750.47 223.48 754.57 225.31 758.42 227.63 C 774.12 237.38 788.11 250.06 798.73 265.23 C 808.03 278.64 815.31 293.57 819.25 309.44 C 820.64 316.56 822.62 323.62 822.87 330.92 C 823.71 344.84 823.75 359.12 819.86 372.62 C 818.26 379.25 816.95 386.00 814.17 392.26 C 801.73 423.67 777.28 450.43 746.49 464.56 C 740.82 467.54 734.75 469.62 728.64 471.49 C 720.86 473.63 713.06 475.97 704.98 476.57 C 697.73 477.09 690.43 477.80 683.18 476.93 C 676.49 476.14 669.66 476.37 663.10 474.65 C 652.78 471.99 642.34 469.25 632.87 464.24 C 606.23 451.91 584.47 429.98 571.12 403.96 C 567.37 396.25 563.73 388.38 561.89 379.98 C 560.57 374.00 558.41 368.18 558.00 362.04 C 557.45 352.81 555.76 343.56 557.16 334.32 C 558.87 294.35 580.63 256.16 613.24 233.23 C 621.27 227.14 630.41 222.82 639.52 218.63 C 650.13 214.55 661.15 211.31 672.42 209.70 M 678.19 231.30 C 676.16 232.73 672.90 232.84 671.25 230.79 C 669.88 229.75 668.93 227.50 666.91 227.88 C 661.62 228.59 656.49 230.23 651.57 232.24 C 651.18 234.22 650.94 236.27 650.10 238.13 C 648.81 239.49 646.91 240.33 645.04 240.26 C 642.89 239.66 641.09 238.27 639.03 237.47 C 635.60 238.62 632.57 240.66 629.43 242.41 C 627.74 243.52 625.74 244.42 624.61 246.16 C 624.39 248.18 624.72 250.25 624.26 252.25 C 623.35 253.92 621.74 255.42 619.81 255.68 C 617.77 255.53 615.87 254.76 613.97 254.12 C 609.45 257.57 605.54 261.72 601.91 266.06 C 602.42 268.30 603.10 270.54 603.05 272.87 C 602.63 274.56 601.44 276.31 599.66 276.72 C 597.61 277.06 595.51 277.03 593.48 277.42 C 589.95 281.77 587.12 286.73 585.08 291.95 C 586.70 294.45 588.93 297.38 587.55 300.50 C 586.39 303.46 582.84 303.63 580.20 304.29 C 578.00 309.26 576.15 314.50 575.74 319.96 C 575.48 322.89 579.60 323.46 580.03 326.14 C 580.29 328.00 580.01 330.21 578.56 331.56 C 576.98 332.75 575.13 333.52 573.35 334.39 C 573.29 340.13 573.29 345.87 573.36 351.62 C 575.34 352.57 577.42 353.46 579.15 354.86 C 580.23 356.24 580.19 358.18 580.01 359.84 C 579.66 362.57 575.45 363.09 575.74 366.04 C 576.14 371.50 578.01 376.74 580.20 381.72 C 582.06 382.15 584.02 382.41 585.74 383.31 C 587.53 384.48 588.24 386.79 587.88 388.83 C 587.31 390.74 586.13 392.39 585.08 394.05 C 587.13 399.27 589.95 404.23 593.48 408.59 C 596.32 409.34 600.13 408.20 602.07 410.99 C 604.11 413.65 602.41 417.07 601.88 419.97 C 603.53 421.95 605.30 423.83 607.19 425.59 C 611.23 422.48 614.19 418.31 617.57 414.55 C 626.48 404.79 635.13 394.80 643.94 384.95 C 648.07 380.41 651.76 375.43 656.54 371.53 C 661.70 367.26 667.23 363.43 672.20 358.92 C 671.71 357.93 671.22 356.95 670.74 355.97 C 662.73 360.67 656.25 367.63 647.97 371.92 C 640.63 375.71 633.10 379.13 625.73 382.84 C 619.79 385.73 614.28 389.43 608.24 392.13 C 602.11 394.88 596.36 398.42 590.14 400.99 C 595.89 396.73 602.05 393.07 607.93 388.99 C 617.61 383.09 626.90 376.59 636.40 370.41 C 641.11 367.40 645.53 363.88 650.69 361.65 C 656.66 358.97 662.83 356.71 668.70 353.79 C 668.71 353.07 668.71 351.63 668.72 350.91 C 666.80 351.10 664.86 351.29 663.09 352.06 C 657.85 354.14 652.73 356.54 647.40 358.38 C 639.30 360.97 630.88 362.27 622.54 363.82 C 616.80 365.14 611.11 366.66 605.27 367.48 C 596.42 368.81 587.94 371.98 579.02 372.90 C 583.62 371.01 588.41 369.66 593.14 368.14 C 609.24 363.09 625.19 357.57 641.17 352.18 C 649.49 349.38 658.39 349.67 666.91 347.90 C 666.85 346.67 666.80 345.44 666.76 344.21 C 661.68 344.83 656.62 345.68 651.53 346.30 C 642.72 347.38 633.84 346.59 625.03 345.95 C 618.96 345.48 612.85 345.86 606.81 345.09 C 601.16 344.41 595.45 344.82 589.81 344.11 C 585.00 343.54 580.15 343.55 575.32 343.69 C 575.31 343.34 575.31 342.65 575.30 342.31 C 583.55 342.90 591.72 341.34 599.96 341.36 C 604.96 341.31 609.91 340.38 614.92 340.38 C 625.33 340.45 635.69 338.76 646.11 339.25 C 652.87 339.51 659.49 341.19 666.27 341.33 C 666.30 340.48 666.37 338.79 666.40 337.94 C 659.54 336.68 652.53 336.54 645.72 335.06 C 641.38 334.15 637.30 332.35 633.10 331.00 C 616.93 325.71 600.88 320.06 584.56 315.23 C 582.66 314.65 580.81 313.93 578.99 313.19 C 586.56 313.68 593.71 316.45 601.16 317.68 C 606.27 318.55 611.40 319.41 616.42 320.74 C 624.55 322.94 632.98 323.74 641.14 325.87 C 648.80 327.52 655.84 331.07 663.09 333.94 C 664.86 334.71 666.80 334.90 668.71 335.09 C 668.71 334.39 668.72 332.97 668.72 332.27 C 659.58 327.70 649.50 324.90 641.20 318.79 C 632.22 312.75 623.11 306.92 614.19 300.82 C 606.23 295.46 597.90 290.65 590.13 285.02 C 597.04 287.88 603.46 291.76 610.24 294.91 C 614.89 297.04 619.41 299.43 623.82 302.04 C 634.91 308.43 647.52 312.25 657.49 320.49 C 661.88 323.70 665.95 327.38 670.74 330.02 C 671.22 329.03 671.71 328.05 672.21 327.07 C 667.20 322.59 661.64 318.79 656.49 314.48 C 652.67 311.30 649.57 307.40 646.30 303.69 C 633.66 289.39 620.99 275.12 608.26 260.90 C 613.76 265.30 618.95 270.08 624.12 274.86 C 635.20 284.79 646.22 294.79 657.35 304.66 C 663.62 310.51 667.95 318.06 673.64 324.43 C 674.55 325.50 676.00 324.00 677.11 323.91 C 674.51 318.45 670.25 314.08 666.80 309.18 C 662.76 304.15 660.41 298.08 657.47 292.40 C 653.27 283.95 648.91 275.58 644.81 267.07 C 640.82 258.60 635.67 250.72 632.09 242.06 C 636.47 247.76 639.84 254.15 643.96 260.03 C 651.97 272.35 659.92 284.71 667.99 296.98 C 672.96 304.82 675.16 313.99 679.78 322.01 C 680.42 321.71 681.70 321.12 682.34 320.82 C 680.95 314.40 677.76 308.61 675.58 302.46 C 673.14 296.02 672.21 289.16 670.66 282.47 C 668.96 275.22 668.18 267.79 666.24 260.59 C 664.64 254.71 663.94 248.65 662.46 242.75 C 661.48 238.88 660.66 234.97 660.21 231.01 C 665.87 246.06 669.75 261.71 675.33 276.79 C 677.03 281.19 678.15 285.77 679.73 290.21 C 683.52 299.61 683.57 309.90 685.19 319.78 C 686.41 319.74 687.63 319.71 688.87 319.68 C 687.22 309.58 686.17 299.34 686.56 289.10 C 686.54 281.74 687.56 274.43 687.70 267.08 C 688.13 253.82 689.67 240.59 689.33 227.31 C 689.66 227.31 690.34 227.31 690.68 227.31 C 690.36 233.91 690.86 240.50 691.48 247.06 C 691.53 253.05 691.99 259.02 692.52 264.98 C 692.59 274.00 693.43 282.99 693.49 292.01 C 693.68 301.29 692.59 310.53 691.13 319.68 C 692.35 319.71 693.57 319.74 694.80 319.78 C 696.05 311.66 696.53 303.39 698.50 295.41 C 700.52 289.71 702.24 283.91 704.17 278.18 C 709.98 262.66 713.97 246.53 719.79 231.01 C 719.10 237.76 716.93 244.23 715.84 250.91 C 714.83 257.20 712.85 263.28 711.80 269.56 C 710.40 278.22 708.39 286.76 706.58 295.33 C 704.66 304.19 699.70 312.01 697.65 320.82 C 698.29 321.12 699.58 321.71 700.22 322.00 C 703.86 315.72 705.96 308.72 709.13 302.21 C 711.40 297.36 714.66 293.08 717.55 288.60 C 723.18 279.59 729.19 270.82 734.84 261.82 C 739.39 255.36 743.15 248.37 747.90 242.06 C 745.94 246.61 743.73 251.05 741.30 255.38 C 736.55 263.76 732.60 272.56 728.22 281.13 C 724.70 287.97 721.29 294.87 717.91 301.77 C 713.94 309.77 707.01 315.81 702.95 323.75 C 703.90 324.19 704.86 324.63 705.83 325.08 C 711.51 318.64 716.00 311.19 722.14 305.15 C 733.41 295.08 744.63 284.96 755.88 274.86 C 761.05 270.08 766.23 265.29 771.75 260.90 C 759.01 275.11 746.35 289.39 733.70 303.68 C 730.43 307.40 727.32 311.30 723.51 314.48 C 718.36 318.79 712.80 322.59 707.78 327.07 C 708.27 328.05 708.76 329.03 709.26 330.02 C 717.33 325.42 723.78 318.42 732.03 314.08 C 737.82 311.08 743.72 308.30 749.61 305.49 C 755.80 302.56 761.48 298.67 767.73 295.88 C 775.22 292.49 782.28 288.20 789.86 285.01 C 787.79 286.58 785.67 288.06 783.47 289.43 C 766.56 300.07 750.15 311.48 733.36 322.30 C 726.20 326.04 718.55 328.75 711.28 332.26 C 711.28 332.97 711.29 334.39 711.30 335.09 C 716.88 334.81 721.70 331.66 726.85 329.82 C 738.97 324.43 752.42 323.80 765.10 320.36 C 772.03 318.56 779.20 317.91 786.14 316.11 C 791.03 314.84 795.94 313.55 801.01 313.19 C 797.92 314.51 794.72 315.49 791.50 316.40 C 776.29 321.07 761.27 326.29 746.16 331.25 C 741.97 332.59 737.93 334.46 733.59 335.28 C 726.81 336.59 719.86 336.69 713.08 338.06 C 713.13 339.31 713.20 340.56 713.27 341.81 C 722.92 341.57 732.33 338.46 742.04 339.24 C 750.41 339.13 758.70 340.55 767.07 340.45 C 779.59 341.25 792.11 342.65 804.69 342.32 C 804.69 342.66 804.70 343.34 804.71 343.68 C 798.11 343.47 791.53 343.82 784.96 344.24 C 770.60 344.33 756.32 346.34 741.96 346.50 C 732.53 347.33 723.31 344.47 713.90 344.71 C 713.62 345.82 713.36 346.93 713.10 348.04 C 720.13 349.21 727.30 349.47 734.28 350.94 C 738.36 351.78 742.20 353.45 746.15 354.75 C 761.53 359.80 776.83 365.10 792.31 369.85 C 795.24 370.73 798.13 371.73 800.97 372.90 C 793.74 372.20 786.83 369.88 779.75 368.43 C 774.38 367.29 768.90 366.68 763.59 365.28 C 755.45 363.05 747.02 362.26 738.86 360.13 C 731.19 358.47 724.15 354.93 716.91 352.06 C 715.12 351.29 713.18 351.11 711.28 350.92 C 711.29 351.64 711.29 353.08 711.29 353.80 C 719.95 358.24 729.61 360.70 737.60 366.40 C 745.56 371.80 753.68 376.96 761.61 382.38 C 770.85 388.33 780.30 394.04 788.94 400.85 C 781.32 396.71 773.50 392.96 765.73 389.11 C 755.11 382.76 743.70 377.89 732.70 372.27 C 724.11 368.00 717.48 360.80 709.25 355.97 C 708.76 356.95 708.27 357.93 707.79 358.92 C 714.44 365.09 722.43 369.71 728.58 376.42 C 739.03 388.31 749.49 400.18 760.08 411.95 C 764.42 416.41 767.86 421.73 772.80 425.58 C 774.69 423.82 776.46 421.94 778.13 419.97 C 777.58 417.08 775.88 413.65 777.93 410.99 C 779.91 408.23 783.75 409.10 786.69 408.75 C 789.67 404.00 792.78 399.28 794.96 394.07 C 794.02 392.63 793.02 391.21 792.38 389.62 C 791.30 387.02 792.66 383.40 795.59 382.82 C 797.41 382.02 800.15 382.10 800.81 379.80 C 802.57 375.41 803.83 370.76 804.24 366.04 C 804.55 363.10 800.38 362.54 799.97 359.86 C 799.69 357.99 799.98 355.78 801.44 354.44 C 803.01 353.24 804.86 352.47 806.64 351.61 C 806.70 345.86 806.70 340.12 806.64 334.38 C 804.68 333.37 802.48 332.64 800.92 331.03 C 799.83 329.37 799.59 327.21 800.17 325.33 C 801.10 323.73 802.82 322.82 804.25 321.72 C 804.25 315.63 802.24 309.78 799.79 304.28 C 797.92 303.84 795.97 303.58 794.26 302.69 C 792.46 301.52 791.74 299.21 792.11 297.17 C 792.68 295.25 793.85 293.61 794.92 291.95 C 792.87 286.72 790.05 281.77 786.52 277.41 C 783.67 276.65 779.86 277.79 777.93 275.01 C 775.89 272.36 777.59 268.95 778.09 266.06 C 774.45 261.72 770.54 257.58 766.03 254.12 C 764.12 254.76 762.21 255.53 760.19 255.68 C 758.24 255.42 756.64 253.92 755.73 252.26 C 755.28 250.25 755.59 248.18 755.39 246.16 C 754.86 245.20 753.90 244.61 753.07 243.99 C 749.04 241.34 744.80 238.99 740.29 237.27 C 738.86 238.29 737.46 239.40 735.85 240.11 C 733.70 240.65 731.38 239.67 729.90 238.13 C 729.03 236.29 728.83 234.23 728.46 232.26 C 723.43 230.51 718.40 228.52 713.09 227.86 C 710.23 227.66 709.34 231.41 706.81 232.11 C 705.12 232.57 703.22 232.32 701.80 231.30 C 700.47 229.71 699.84 227.68 698.67 226.00 C 692.93 225.34 687.06 225.34 681.33 226.00 C 680.14 227.68 679.50 229.71 678.19 231.30 M 656.30 382.29 C 645.57 391.89 634.85 401.51 624.14 411.15 C 620.52 414.54 616.85 417.89 613.01 421.04 C 611.40 422.53 609.44 423.89 608.57 425.97 C 609.17 428.72 611.95 430.18 613.96 431.89 C 615.86 431.24 617.77 430.46 619.80 430.32 C 621.74 430.57 623.36 432.08 624.27 433.75 C 624.70 435.75 624.39 437.81 624.61 439.84 C 625.75 441.56 627.74 442.47 629.43 443.59 C 632.57 445.35 635.64 447.41 639.13 448.44 C 641.24 447.84 642.99 446.39 645.08 445.72 C 646.94 445.67 648.81 446.53 650.10 447.87 C 650.95 449.71 651.15 451.76 651.54 453.74 C 656.84 455.52 662.15 457.81 667.79 458.14 C 670.00 457.35 671.03 454.78 673.20 453.87 C 674.87 453.41 676.77 453.68 678.19 454.70 C 679.51 456.29 680.14 458.31 681.34 460.00 C 687.06 460.66 692.93 460.66 698.67 460.00 C 699.84 458.30 700.48 456.29 701.80 454.69 C 703.22 453.67 705.11 453.40 706.79 453.87 C 708.95 454.79 710.00 457.34 712.21 458.14 C 717.85 457.81 723.16 455.53 728.46 453.74 C 728.83 451.76 729.03 449.71 729.90 447.87 C 731.18 446.53 733.04 445.66 734.92 445.72 C 737.00 446.38 738.75 447.88 740.88 448.42 C 744.37 447.41 747.43 445.34 750.58 443.59 C 752.25 442.47 754.25 441.57 755.38 439.84 C 755.59 437.81 755.29 435.74 755.73 433.74 C 756.63 432.07 758.25 430.57 760.20 430.32 C 762.22 430.46 764.13 431.23 766.05 431.89 C 768.04 430.18 770.83 428.72 771.42 425.97 C 770.68 424.08 768.93 422.85 767.52 421.50 C 763.69 418.33 759.98 415.04 756.38 411.62 C 745.51 401.82 734.61 392.05 723.70 382.30 C 716.88 376.31 712.45 368.21 706.37 361.58 C 705.45 360.49 703.97 362.01 702.88 362.10 C 707.00 370.06 713.98 376.15 717.91 384.23 C 724.42 397.64 731.33 410.86 737.84 424.27 C 741.35 430.75 745.18 437.06 747.88 443.94 C 745.15 440.33 742.79 436.48 740.40 432.65 C 730.81 417.60 720.87 402.79 711.25 387.76 C 706.79 380.21 704.59 371.58 700.22 363.99 C 699.58 364.28 698.29 364.88 697.65 365.18 C 699.24 372.37 703.00 378.80 705.19 385.79 C 709.60 400.21 710.97 415.33 714.81 429.88 C 716.23 438.30 718.74 446.51 719.79 455.00 C 717.26 448.47 715.29 441.74 713.09 435.10 C 709.56 422.54 704.84 410.35 701.09 397.86 C 699.80 393.96 698.25 390.10 697.80 385.98 C 696.98 379.54 696.31 373.06 694.99 366.69 C 694.17 366.70 692.54 366.71 691.73 366.71 C 691.58 373.82 692.86 380.82 693.43 387.88 C 693.83 398.93 692.58 409.97 692.53 421.02 C 691.45 433.54 690.43 446.10 690.68 458.68 C 690.34 458.69 689.66 458.70 689.32 458.71 C 689.62 450.17 688.86 441.66 688.56 433.14 C 688.34 428.44 687.42 423.79 687.40 419.08 C 687.37 408.38 686.04 397.70 686.63 386.99 C 687.27 380.24 688.39 373.52 688.27 366.71 C 687.46 366.71 685.83 366.70 685.01 366.69 C 682.65 376.43 683.38 386.83 679.39 396.16 C 677.62 401.19 676.43 406.41 674.54 411.40 C 669.36 425.79 665.60 440.66 660.21 454.99 C 660.97 447.93 663.11 441.15 664.33 434.18 C 665.29 428.48 667.03 422.95 668.05 417.26 C 669.84 407.26 671.58 397.22 674.31 387.42 C 676.43 379.80 680.61 372.92 682.35 365.18 C 681.70 364.88 680.42 364.29 679.78 363.99 C 675.40 371.58 673.20 380.21 668.75 387.76 C 659.13 402.79 649.19 417.60 639.60 432.65 C 637.21 436.48 634.84 440.34 632.12 443.94 C 635.50 435.18 640.90 427.44 644.79 418.93 C 650.49 407.33 656.45 395.86 662.09 384.23 C 666.01 376.14 673.01 370.07 677.11 362.11 C 676.13 361.72 675.14 361.39 674.14 361.12 C 667.71 367.75 663.31 376.18 656.30 382.29 Z"/>
  </g>
  <g id="#00000088" transform="matrix(1, 0, 0, 1, 148.449585, -26.568184)">
    <path fill="#000000" opacity="0.53" d=" M 984.90 270.35 C 984.25 266.76 984.36 263.11 984.77 259.52 C 986.20 263.01 985.85 266.78 984.90 270.35 Z"/>
  </g>
  <g id="#2e5e37ff" transform="matrix(1, 0, 0, 1, 148.449585, -26.568184)">
    <path fill="#2e5e37" opacity="1.00" d="M 1607.933 282.88 C 1609.263 282.92 1610.745 286.774 1611.62 287.927 C 1612.822 289.992 1613.25 289.48 1614.16 291.95 C 1615.39 294.62 1617.53 296.87 1618.03 299.86 C 1619.11 305.08 1622.82 310.02 1622.89 315.43 C 1622.91 316.977 1623.71 318.859 1624.39 321.33 C 1624.776 323.776 1624.922 326.528 1625.444 328.62 C 1625.905 330.533 1625.908 335.014 1626.219 337.371 C 1625.589 351.141 1626.67 362.22 1626.24 375.98 C 1625.899 379.5 1624.716 383.056 1623.923 386.806 C 1621.999 392.534 1620.18 398.215 1617.32 403.5 C 1613.62 411.89 1605.98 417.35 1600.22 424.18 C 1598.63 426.09 1596.665 427.325 1594.685 428.695 C 1592.745 430.365 1590.9 432.19 1588.63 433.46 C 1585.42 435.25 1582.517 437.494 1579.41 439.44 C 1575.957 441.602 1575.577 441.674 1571.412 443.715 C 1569.832 444.695 1565.34 446.45 1563.66 447.22 C 1561.096 448.066 1558.557 448.728 1555.78 449.541 C 1552.564 450.482 1549.57 451.69 1546.29 452.39 C 1538.32 454.35 1530.339 455.55 1522.03 456.98 C 1518.895 457.52 1514.234 458.058 1510.37 458.26 C 1503.455 458.621 1496.72 459.51 1489.89 459.82 C 1489.47 459.81 1488.62 459.81 1488.2 459.8 C 1482.86 460.081 1477.49 460.06 1472.24 460.223 C 1471.06 460.26 1469.786 460.239 1468.646 460.149 C 1466.976 459.999 1465.44 460.18 1463.8 460.08 C 1449.54 460.74 1435.24 460.25 1420.97 460.36 C 1417.89 460.47 1414.713 460.514 1411.633 460.554 C 1408.123 460.714 1404.79 461.75 1401.62 463.65 C 1397.31 465.95 1392.27 467.21 1388.89 470.92 C 1386.8 473.14 1384.58 475.44 1383.56 478.36 C 1383.13 481.95 1383.31 485.59 1382.75 489.18 C 1381.34 487.97 1379.94 486.72 1379.14 485.03 C 1376.79 480.62 1374.39 476.23 1371.94 471.87 C 1370.16 468.72 1367.87 465.8 1366.8 462.3 C 1365.4 458.01 1364.37 453.6 1363.38 449.2 C 1361.96 443.22 1362.54 437.04 1362.42 430.95 C 1362.27 426.67 1364.35 422.81 1365.71 418.87 C 1366.79 415.59 1369.61 413.41 1371.72 410.82 C 1373.54 408.6 1375.74 406.73 1378.17 405.22 C 1381.9 402.91 1385.36 399.94 1389.7 398.81 C 1394.97 397.17 1400.55 397.66 1406 397.67 C 1409.34 397.71 1412.69 397.52 1416.04 397.6 C 1420.42 397.67 1424.55 399.65 1428.98 399.41 C 1437.32 399.3 1445.71 398.89 1453.98 400.36 C 1462.26 400.08 1470.58 401 1478.85 400.16 C 1486.51 399.698 1494.072 399.812 1501.812 399.38 C 1504.622 399.45 1507.395 399.082 1510.259 398.929 C 1513.469 398.145 1516.59 397.787 1519.75 396.85 C 1523.432 395.758 1527.3 395.42 1530.91 394.04 C 1537.54 391.51 1544.72 390.82 1551.33 388.25 C 1554.97 386.52 1558.61 384.79 1562.42 383.45 C 1566.35 382.1 1569.41 379.2 1572.66 376.73 C 1577.92 372.66 1582.76 367.93 1586.37 362.3 C 1592.3 354.09 1599.9 346.55 1602.52 336.45 C 1603.976 333.919 1604.687 331.06 1605.654 328.439 C 1606.159 322.519 1608.703 317.855 1608.43 313.05 C 1608.159 308.275 1609.4 303.58 1608.68 298.84 C 1608.03 293.98 1607.983 287.77 1607.933 282.88 Z"/>
    <path fill="#2e5e37" opacity="1.00" d=" M 262.52 415.16 C 262.42 415.12 262.22 415.02 262.12 414.98 L 262.52 415.16 Z"/>
    <path fill="#2e5e37" opacity="1.00" d=" M 262.52 415.16 L 262.90 415.33 L 263.09 415.75 C 262.95 415.60 262.66 415.31 262.52 415.16 Z"/>
    <path fill="#2e5e37" opacity="1.00" d=" M 263.09 415.75 C 263.24 415.87 263.53 416.11 263.68 416.23 C 263.53 416.11 263.24 415.87 263.09 415.75 Z"/>
    <path fill="#2e5e37" opacity="1.00" d=" M 263.68 416.23 C 264.15 416.38 265.10 416.69 265.57 416.84 L 265.51 417.70 L 264.61 417.55 C 264.37 417.22 263.91 416.56 263.68 416.23 Z"/>
    <path fill="#2e5e37" opacity="1.00" d="M 1385.03 495.64 C 1385.66 495.85 1387.935 500.482 1388.565 500.692 C 1390.965 503.592 1390.64 503.24 1392.56 506.45 C 1400.63 520.5 1406.67 535.69 1410.59 551.41 C 1411.44 554.87 1411.38 558.46 1411.39 562.01 C 1411.73 572.22 1409.78 583.12 1403.32 591.33 C 1400.79 594.75 1398.29 598.22 1395.13 601.08 C 1392.79 603.21 1389.57 604.11 1387.4 606.44 C 1386.21 607.52 1381.698 609.733 1380.188 610.353 C 1375.488 612.353 1374.317 612.44 1368.79 614.186 C 1365.212 615.317 1361.78 614.77 1358.03 614.56 C 1351.77 614.48 1345.61 613.13 1339.54 611.71 C 1335.73 610.83 1331.81 611.59 1327.96 611.28 C 1325.24 611.06 1322.65 610.15 1319.97 609.8 C 1317.38 609.49 1314.76 609.79 1312.19 609.53 C 1310.08 608.95 1307.943 608.41 1302.984 607.44 C 1298.704 607.55 1297.44 607.3 1293.45 605.63 C 1289.93 604 1285.94 604.86 1282.36 603.53 C 1278.31 601.86 1273.84 602.13 1269.72 600.89 C 1265.89 599.84 1262.17 599.72 1258.41 598.48 C 1255.08 597.28 1251.42 598.06 1248.09 596.87 C 1244.27 595.58 1240.18 596.33 1236.29 595.51 C 1232.24 594.75 1228.02 594.72 1224.18 593.11 C 1220.3 591.57 1216.13 590.94 1211.97 590.94 C 1207.89 591.09 1204.13 589.02 1200.05 589.24 C 1193.68 589.39 1187.3 589.3 1180.93 589.26 C 1174.6 589.15 1168.82 592.22 1163.65 595.56 C 1160.92 597.17 1159.23 599.92 1157.34 602.36 C 1153.25 607.54 1152.55 614.33 1150.74 620.46 C 1150.43 620.47 1149.82 620.5 1149.51 620.52 C 1146.07 614.28 1143.81 607.49 1140.72 601.09 C 1137.36 594.23 1135.5 586.74 1132 579.94 C 1128.81 573.46 1128.25 566.08 1128.43 558.97 C 1128.24 552.47 1128.98 545.76 1131.77 539.83 C 1134.17 536.32 1137.16 533.2 1140.44 530.48 C 1143.36 527.98 1147.13 526.92 1150.73 525.81 C 1156.95 523.75 1163.58 524.9 1170 524.67 C 1176.79 524.9 1183.72 523.81 1190.37 525.69 C 1194.16 526.62 1198.14 525.95 1201.92 527.02 C 1205.3 527.93 1208.8 528.25 1212.24 528.88 C 1215.22 529.41 1217.96 530.91 1221.01 531.16 C 1223.56 531.34 1226.14 531.56 1228.62 532.28 C 1233.9 533.67 1238.487 534.477 1243.897 535.037 C 1247.247 535.417 1251.433 537.127 1254.883 537.207 C 1259.223 537.487 1262.62 539.36 1266.98 539.5 C 1269.13 539.54 1271.19 540.26 1273.27 540.81 C 1275.63 541.44 1278.12 541.27 1280.54 541.73 C 1283.25 542.43 1286.147 543.423 1288.887 544.083 C 1291.717 544.593 1294.17 545.96 1297.04 546.24 C 1299.73 546.52 1303.093 547.383 1305.823 547.543 C 1309.183 547.723 1311.253 548.652 1314.633 548.782 C 1317.693 548.772 1320.85 548.53 1323.94 548.42 C 1331.69 548.09 1339.55 549.09 1347.15 547.02 C 1354.48 546.73 1361.77 544.18 1367.46 539.5 C 1369.46 537.82 1372.18 536.83 1373.48 534.43 C 1375.34 531.01 1377.108 527.528 1379.42 524.39 C 1381.107 522.1 1381.654 519.027 1382.519 516.741 C 1383.439 514.31 1385.121 511.117 1385.379 509.041 C 1385.93 504.605 1384.59 500.09 1385.03 495.64 Z"/>
    <path fill="#2e5e37" opacity="1.00" d="M 248.05 501.95 C 249.23 499.44 251.97 498.4 254.19 497.05 C 254.33 501.73 253.51 506.37 253.57 511.05 C 253.58 515.36 255.24 519.41 256.34 523.52 C 257.12 526.48 258.53 529.21 260.1 531.83 C 261.98 534.93 263.27 538.55 266.16 540.92 C 268.03 542.51 270.08 543.9 272.18 545.18 C 275.98 547.59 280.55 548.26 284.44 550.51 C 286.99 552.15 290.11 551.69 292.99 551.73 C 302.1 551.52 311.22 551.84 320.33 551.55 C 327.68 551.24 334.65 548.41 342 548.2 C 345.09 548.08 349.449 547.146 352.886 546.38 C 357.676 546.72 360.42 545.28 365.21 545.43 C 368.56 545.77 377.023 542.603 380.103 541.853 C 387.983 539.933 390.03 539.71 397.98 538.16 C 402.31 537.93 405.84 534.97 410.12 534.5 C 413.41 533.99 416.73 533.57 420.05 533.24 C 424.06 532.87 427.91 531.56 431.92 531.08 C 435.45 530.6 438.55 528.56 442.11 528.18 C 445.47 527.81 448.91 527.99 452.23 527.18 C 454.75 526.55 457.34 526.15 459.96 526.24 C 465.98 526.35 472.01 526.38 478.03 526.24 C 483.77 526.01 489.37 527.92 494.3 530.74 C 499.08 533.24 504.15 536.04 507.09 540.74 C 509.63 548.21 511.07 556.15 510.55 564.06 C 510.21 567.11 508.56 569.85 508.18 572.9 C 507.44 577.96 507.6 583.19 505.9 588.07 C 504.43 592.97 501.74 597.38 500 602.18 C 497.99 607.79 495.33 613.17 492.3 618.32 C 491.27 620.23 489.63 621.68 488.11 623.2 C 487.64 619.52 487.72 615.62 485.91 612.27 C 483.55 607.71 482.18 602.35 478 599.01 C 473.59 594.81 467.21 594.38 461.85 592.01 C 458.75 590.59 455.31 590.8 452 590.91 C 446.99 591.14 441.86 590.22 437 591.84 C 432.28 592.55 427.75 594.44 422.94 594.37 C 419.21 594.32 415.76 596.17 412.02 596.01 C 407.9 595.84 404.09 597.78 399.99 597.77 C 395.61 597.75 391.96 600.54 387.75 601.32 C 382.89 602.46 377.8 602.27 373.01 603.74 C 370.57 604.5 367.99 604.32 365.5 604.69 C 363.1 605.29 360.92 606.53 358.52 607.13 C 355.99 607.64 353.33 607.22 350.85 608.06 C 348.63 608.8 346.34 609.32 344 609.45 C 340.93 609.63 338.08 610.99 335.01 611.21 C 329.68 611.59 324.55 613.14 319.33 614.14 C 315.11 615.04 310.71 614.28 306.54 615.47 C 301.12 617 296.853 617.286 291.323 617.356 C 288.233 617.276 284.07 617.77 281.06 618.14 C 276.77 618.6 272.43 618.18 268.3 617 C 263.54 615.69 258.03 616.21 254.04 612.87 C 250.03 609.47 244.86 607.66 241.23 603.79 C 239.16 601.71 236.817 599.423 235.237 597.023 C 233.787 594.843 233.03 592.67 231.66 590.44 C 230.49 587.76 230.46 584.69 228.95 582.14 C 226.79 578.74 226.84 574.59 225.96 570.78 C 224.84 566.8 227 562.98 227.05 559.02 C 227.469 556.68 227.883 554.05 228.1 552 C 228.621 547.085 230.96 542.8 232.56 538.26 C 233.87 533.92 236.17 530 238.11 525.94 C 239.51 523.11 239.62 519.84 241.15 517.06 C 243.74 512.16 245.38 506.82 248.05 501.95 Z"/>
    <path fill="#2e5e37" opacity="1.00" d="M 1152.62 626.56 C 1153.35 625.59 1154.2 624.72 1155.05 623.84 C 1160.11 629.46 1161.46 637.13 1165.6 643.3 C 1167.04 645.69 1167.78 648.41 1168.81 651 C 1169.91 653.84 1171.51 656.46 1172.59 659.32 C 1174.03 663.03 1174.41 667.03 1175.39 670.88 C 1175.92 672.92 1177.5 674.5 1178.25 676.47 C 1179.83 681.15 1181.18 686.01 1180.67 691 C 1180.22 696.69 1181.87 702.85 1179.03 708.13 C 1176.75 712.5 1175.34 717.39 1172.03 721.15 C 1169.53 723.98 1167.75 727.39 1165.17 730.14 C 1163.212 732.452 1159.309 732.859 1157.477 735.327 C 1155.347 735.957 1154.06 737.36 1152.05 738.25 C 1149.71 739.41 1147.92 741.55 1145.34 742.23 C 1140.05 743.93 1134.44 743.25 1129 743.32 C 1124.39 743.22 1119.72 743.81 1115.18 742.84 C 1112.8 742.32 1110.4 741.88 1107.98 741.72 C 1104.21 741.6 1100.8 739.52 1096.99 739.85 C 1092.9 740.12 1089.14 737.97 1085.07 738.24 C 1081.17 738.36 1077.23 738.57 1073.45 737.48 C 1069.42 736.2 1065.08 737.2 1061.09 735.85 C 1057.16 734.6 1052.99 734.25 1049.15 732.72 C 1045.91 731.36 1042.3 731.85 1038.98 730.85 C 1033.53 729.28 1027.81 729.29 1022.26 728.31 C 1019.79 727.84 1017.52 726.74 1015.13 726.07 C 1010.36 724.65 1005.29 724.93 1000.52 723.55 C 996.63 722.45 992.49 723.58 988.63 722.32 C 984.41 721.03 979.93 721.3 975.67 720.28 C 973.28 719.75 970.99 718.92 968.65 718.29 C 965.65 717.43 962.51 717.82 959.46 717.53 C 956.27 717.29 953.19 716.24 950 716.19 C 947.28 716.37 944.78 716.44 942.06 716.55 C 939.4 716.67 936.75 717.64 934.12 717.98 C 931.56 719.34 929.46 721.46 926.71 722.49 C 922.58 723.71 920.49 727.8 918.58 731.31 C 918.07 734.18 918.2 737.11 918.05 740.01 C 915.89 738.97 913.31 738.27 911.99 736.1 C 909.69 732.81 908.64 728.86 906.58 725.45 C 903.46 720.16 901.17 714.44 899.29 708.61 C 898.13 705.04 895.69 702.11 894.27 698.67 C 892.35 694.24 890.99 689.59 889.91 684.9 C 889.17 682.11 890.2 679.28 889.84 676.47 C 889.6 674.29 888.97 672.02 889.87 669.91 L 890.06 669.36 C 890.77 667.2 892.02 665.25 893.63 663.64 C 896.62 660.61 899.61 657.48 903.32 655.32 C 908.08 652.5 913.6 651.51 918.87 650.08 C 927.71 647.75 937.09 647.28 946.05 649.26 C 951.03 650.63 956.06 651.81 961.12 652.9 C 967.63 654.18 974.55 653.76 980.75 656.43 C 987.86 659.27 991.551 659.853 999.091 660.843 C 1002.461 661.163 1009.07 663.91 1012.28 664.72 C 1016.48 665.39 1020.84 665.02 1024.94 666.35 C 1030.37 668.16 1036.19 668.43 1041.52 670.58 C 1044.64 671.95 1048.37 670.67 1051.26 672.69 C 1053.26 674.02 1055.74 673.53 1058.02 673.68 C 1062.07 673.69 1065.91 675.47 1069.99 675.27 C 1076.52 675.08 1082.7 677.42 1089.04 678.55 C 1093.34 678.98 1097.68 678.54 1102 678.64 C 1109.26 678.51 1116.87 679.57 1123.79 676.75 C 1128.32 674.84 1132.8 672.71 1136.95 670.04 C 1141.7 667.01 1144.5 661.94 1147.26 657.2 C 1149.45 653.59 1150.3 649.41 1151.5 645.42 C 1153.38 639.28 1151.21 632.75 1152.62 626.56 Z"/>
    <path fill="#2e5e37" opacity="1.00" d="M 477.24 639.19 C 479.68 634.66 481.23 629.52 485.05 625.87 C 485.87 631.75 486.17 637.69 486.46 643.63 C 487.097 645.138 489.755 653.662 489.751 652.141 C 490.761 657.331 493.29 658.93 495.25 663.8 C 496.59 667.2 499.77 669.25 502.42 671.56 C 504.72 673.64 507.59 674.88 510.41 676.1 C 517.38 679.53 525.3 680.67 533.01 680.37 C 539.02 680.21 545.04 680.44 551.06 680.38 C 553.89 680.41 556.648 680.161 559.408 679.781 C 563.498 679.581 567.36 679.08 571.42 678.26 C 574.12 677.73 581.631 676.14 584.311 675.56 C 591.941 674.87 594.12 672.42 601.68 671.17 C 604.65 670.71 610.794 668.406 613.747 667.873 C 622.548 666.284 627.664 665.018 636.62 662.78 C 642.918 661.206 649.26 660.47 655.47 658.75 C 660.68 657.53 665.717 656.042 671.03 654.87 C 678.43 653.238 685.38 651.692 692.69 650.77 C 699.01 649.22 705.57 650.155 712.01 649.77 C 715.07 649.587 718.3 650.434 721.18 649.77 C 725.13 651.44 729.42 652.31 733.27 654.21 C 733.82 655.61 734.41 655.62 735.02 654.26 C 737.05 654.25 738.41 655.94 739.89 657.1 C 742.32 659.35 745.33 661.18 746.89 664.22 C 749.75 669.68 749.75 676.04 749.54 682.05 C 749.28 685.79 749 689.63 747.65 693.17 C 746.81 694.79 745.86 696.35 745.06 698.01 C 744.05 701.71 743.5 705.54 742.1 709.14 C 740.62 713.37 737.82 716.95 736.16 721.1 C 733.93 726.66 731.16 732 728.2 737.2 C 727.13 739.06 725.62 740.61 724.16 742.15 C 723.87 739.23 723.91 736.27 723.26 733.41 C 721.96 729.09 719.39 724.87 715.24 722.78 C 712.58 721.43 709.96 720.03 707.37 718.58 C 705.46 717.43 703.14 717.8 701.03 717.73 C 695.33 717.95 689.629 717.839 683.94 717.72 C 678.64 717.609 674.136 719.638 668.752 720.49 C 664.045 721.235 660.317 720.821 654.219 722.243 C 649.789 721.943 645.431 724.301 641.02 724.66 C 636.981 724.989 634.309 726.211 630.97 726.61 C 628.395 726.918 625.942 727.791 623.45 728.49 C 619.505 729.596 615.414 729.589 610.86 730.77 C 607.063 731.754 602.843 732.033 599.5 732.698 C 592.353 734.12 587.153 736.428 579.853 736.718 C 578.224 736.927 574.819 737.733 571.92 738.015 C 569.95 738.065 567.97 739.163 566.01 739.373 C 561.92 739.983 558.206 741.403 554.02 741.59 C 551.088 741.721 547.452 742.407 545.54 742.738 C 539.339 743.811 534.695 743.94 528.515 744.35 C 525.495 744.61 521.12 744.93 518.07 744.96 C 510.19 744.87 502.15 745.46 494.47 743.28 C 493.14 742.82 492.13 741.78 490.98 741.03 C 488.23 738.78 484.19 738.99 481.68 736.38 C 478.27 733.11 474.86 729.84 471.44 726.59 C 468.81 724.38 468.79 720.67 466.97 717.96 C 463.8 713.27 461.3 707.8 461.55 702.02 C 461.63 696.68 461.75 691.34 461.5 686.01 C 461.24 682.59 462.28 679.29 463.21 676.06 C 463.92 673.55 465.72 671.52 466.35 668.99 C 467.79 663.41 468.71 657.56 471.66 652.52 C 474.09 648.32 474.95 643.46 477.24 639.19 Z"/>
    <path fill="#2e5e37" opacity="1.00" d="M 919.47 744.1 C 921.71 746.39 923.74 748.97 924.58 752.14 C 926.99 760.27 931.7 767.45 934.45 775.45 C 935.78 779.05 935.56 782.95 936.4 786.67 C 936.92 789.36 937.94 792.13 937.16 794.9 C 936.44 797.9 935.77 800.92 935.66 804.02 C 935.67 807.04 933.83 809.57 932.87 812.34 C 931.43 816.28 929.25 819.91 928.04 823.95 C 926.96 824.57 925.434 827.343 924.454 828.113 C 923.836 831.245 923.583 831.533 921.08 833.07 C 918.04 835.7 915.08 838.43 912.33 841.37 C 909.21 844.79 904.6 846.13 901.08 849.02 C 897.71 851.84 893.6 853.51 889.96 855.9 C 886.82 858 883.09 858.89 879.85 860.8 C 877.16 862.35 874.02 862.81 871.3 864.28 C 867.81 866.18 864.137 867.536 860.377 868.456 C 857.067 868.766 854.39 870.2 851.02 870.19 C 846.61 870.32 842.46 872.24 838.03 871.97 C 827.02 871.69 816 871.75 804.99 871.96 C 800.71 872.03 796.43 871.46 792.29 870.4 C 788.74 869.5 785.5 867.68 781.93 866.87 C 778.01 865.93 773.94 865.46 770.22 863.84 C 764.83 861.51 759.59 858.85 754.14 856.69 C 747.63 854.05 742.42 849.23 736.54 845.54 C 731.96 842.51 727.56 839.1 724.47 834.5 C 717.8 828.44 712.15 821.393 709.74 812.593 C 707.949 811.287 707.849 807.738 706.26 804.08 C 706.34 796.36 706.3 788.65 706.27 780.94 C 706.18 777.99 707.979 773.347 709.079 770.767 C 711.049 766.817 710.89 764.24 713.74 760.68 C 716.034 756.36 716.95 751 719.55 746.06 C 720.92 747.49 721.986 751.134 722.796 753.024 C 723.666 755.624 723.81 756.25 725.6 758.52 C 727.16 760.74 728 763.32 729.26 765.71 C 730.89 768.05 732.96 770.07 734.66 772.38 C 738.46 777.53 744.52 780.18 749.93 783.27 C 752.73 784.82 755.22 787.16 758.54 787.57 C 762.8 788.29 767.04 789.26 770.96 791.17 C 775.18 793.33 780.03 793.21 784.48 794.61 C 788.22 795.91 791.647 796.623 795.517 796.673 C 799.267 796.553 803.17 797.47 806.94 797.22 C 814.63 797.08 822.33 797.02 830.02 797.22 C 833.14 797.33 836.21 796.7 839.25 796.05 C 843.43 795.11 847.71 795.82 851.95 795.63 C 854.19 795.57 856.067 795.089 858.347 795.149 C 860.527 794.939 862.53 793.53 864.65 792.79 C 871.65 790.08 879.04 788.57 886.14 786.13 C 888.37 785.23 890.11 783.5 892.18 782.3 C 894.03 781.34 896.44 780.24 897.94 778.59 C 900.58 775.81 903.333 774.147 906.523 772.067 C 909.083 770.427 910.74 768.43 911.99 765.8 C 913.57 762.36 915.7 759.15 916.62 755.44 C 917.56 751.66 918.24 747.81 919.47 744.1 Z"/>
  </g>
  <g id="#2d5b35ff" transform="matrix(1, 0, 0, 1, 148.449585, -26.568184)">
    <path fill="#2d5b35" opacity="1.00" d="M 16.46 300.38 C 17.43 296.06 18.38 291.08 22.76 288.89 C 23.22 289.85 23.5 290.85 23.62 291.89 C 22.84 300.01 21.78 308.49 24.28 316.41 C 24.97 319.22 24.44 322.13 24.83 324.98 C 25.21 326.78 25.94 328.49 26.3 330.31 C 26.87 337.38 31.53 343.16 33.4 349.87 C 34.01 353.04 36.246 354.23 37.496 357.04 C 38.746 359.69 41.12 362.58 43.58 364.39 C 47.58 367.5 49.46 372.43 53.25 375.73 C 57.73 379.61 61.6 384.28 66.85 387.17 C 69.99 389.04 73.68 389.61 76.95 391.17 C 79.83 392.54 82.47 394.37 85.45 395.51 C 89.44 397.09 93.82 396.99 97.89 398.26 C 101.55 399.41 105.55 399.19 109.01 401 C 111.79 402.51 114.96 403.19 118.02 403.28 C 121.11 403.29 123.89 404.06 126.94 404.34 C 152.97 404.63 179.01 404.25 205.04 404.42 C 209.43 404.46 213.55 402.45 217.96 402.63 C 222.42 402.75 226.89 402.72 231.32 402.13 C 238.54 401.24 245.45 403.9 252.31 405.71 C 255.91 406.63 258.56 409.4 261.5 411.5 C 263.35 412.84 265.25 414.41 265.57 416.84 C 265.1 416.69 264.15 416.38 263.68 416.23 C 263.53 416.11 263.24 415.87 263.09 415.75 L 262.9 415.33 L 262.52 415.16 L 262.12 414.98 C 262.22 415.02 262.42 415.12 262.52 415.16 C 262.66 415.31 262.95 415.6 263.09 415.75 C 263.24 415.87 264.515 416.11 264.665 416.23 C 264.895 416.56 265.264 416.454 265.504 416.784 L 265.765 416.989 C 268.225 417.689 269.26 420.86 270.16 423.06 C 273.76 432.96 274.896 443.752 273.49 454.05 C 273.026 457.45 271.71 460.5 270.7 463.69 C 269.77 466.18 269.424 467.966 267.65 471.016 C 267.457 472.022 266.986 472.652 266.658 473.56 C 264.578 479.32 260.504 483.481 257.007 488.542 C 256.069 489.142 255.262 490.483 253.98 491.26 C 253.64 487.76 254.07 483.95 252.12 480.82 C 250.81 478.6 249.77 476.01 247.54 474.55 C 245.13 472.98 242.84 471.24 240.37 469.78 C 236.42 468.35 232.17 467.89 228 467.6 C 222.65 467.4 217.37 466.21 211.99 466.46 C 197 466.73 182 466.13 167.02 466.81 C 154.33 467.93 141.56 467.44 128.93 465.86 C 117.83 463.69 106.61 462.16 95.45 460.27 C 93.24 459.6 91.34 458.13 89.04 457.74 C 78.44 456.43 69.44 450.05 59.32 447.1 C 52.54 444.08 47.21 438.65 40.61 435.31 C 37.55 433.83 36.61 430.07 33.61 428.53 C 29.5 426.13 25.71 422.94 23.26 418.81 C 21.24 415.41 18.45 412.51 16.9 408.84 C 13.62 403.24 10.64 397.37 9.13 391.01 C 7.97 386.27 6.29 381.51 6.52 376.56 C 6.52 375.98 6.51 374.8 6.5 374.22 C 6.23 370.11 5.06 366.1 5.11 361.97 C 5.76 353.42 6.28 344.85 6.57 336.28 C 7.65 329.33 9.41 322.51 11 315.66 C 13.18 310.7 14.35 305.38 16.46 300.38 Z"/>
  </g>
  <g id="#0000007b" transform="matrix(1, 0, 0, 1, 148.449585, -26.568184)">
    <path fill="#000000" opacity="0.48" d=" M 908.30 302.89 C 908.14 301.09 908.70 299.40 909.56 297.85 C 908.68 309.64 907.76 321.44 908.34 333.27 C 906.63 329.74 907.43 325.74 907.29 321.98 C 907.14 315.59 908.55 309.29 908.30 302.89 Z"/>
  </g>
  <g id="#d8e8d9ff" transform="matrix(1, 0, 0, 1, 148.449585, -26.568184)">
    <path fill="#d8e8d9" opacity="1.00" d=" M 5.78 374.22 L 6.50 374.22 C 6.51 374.80 6.52 375.98 6.52 376.56 L 5.80 376.61 L 5.18 375.94 L 5.17 374.93 L 5.78 374.22 Z"/>
    <path fill="#d8e8d9" opacity="1.00" d=" M 1126.41 558.75 C 1128.08 558.05 1128.79 561.71 1127.02 561.78 C 1125.85 561.37 1125.53 559.56 1126.41 558.75 Z"/>
  </g>
  <g id="#2c5b34ff" transform="matrix(1, 0, 0, 1, 148.449585, -26.568184)">
    <path fill="#2c5b34" opacity="1.00" d=" M 733.27 654.21 L 734.15 653.80 L 735.02 654.26 C 734.41 655.62 733.82 655.61 733.27 654.21 Z"/>
  </g>
  <g id="#fde4cbff" transform="matrix(1, 0, 0, 1, 148.449585, -26.568184)">
    <path fill="#fde4cb" opacity="1.00" d=" M 889.58 669.23 L 890.06 669.36 L 889.87 669.91 L 889.41 669.73 L 889.58 669.23 Z"/>
  </g>
</svg>